<?xml version="1.0" encoding="UTF-8"?> <svg xmlns="http://www.w3.org/2000/svg" width="574.329" height="534.209"><style><![CDATA[.B{fill:#b0accf}.C{fill:#cccbd9}.D{fill:#8279c4}.E{fill:#dfdfdf}]]></style><path d="M13.4 428.116s-39.2 48.918 16.5 65.1c0 0 92.96 20.5 195.5 39.576 0 0 37.528 12.712 70.98-38.052L564.878 85.254s32.13-45.3-22.083-58.188z" fill="#e4e4e4"></path><path d="M13.397 428.116s-27.618 37.1 5.48 46.357 198.665 40.3 198.665 40.3 38.6 10.44 65.23-30.268L558.835 64.04s19.586-31.558-16.048-36.97L353.43.97s-36.862-9.647-66.024 32L13.397 428.116zm99.33 73.87s-7.487-2.217-7.217 1.866c1.475 4.414 5.462 4.9 12.653 6.252 4.708 1.252 9.52 2.08 14.374 2.478 0 0 4.246 1.205 3.1-2.338s-3.93-4.218-5.524-4.6-17.386-3.647-17.386-3.647z" fill="#3b3854"></path><path d="M17.042 435.42S-3.83 461.136 35.025 468.4l180.395 35.43s38.047 6.868 56.8-22.407L547.135 64.638S573.153 34.82 523.668 31L509.9 29.48s-3.424-1.423-8.59 5.03a26.63 26.63 0 0 1-12.369 8.436 104.42 104.42 0 0 1-15.835-1.282L372.94 27.42s-9.106-3-1.824-13.042c0 0 4.056-4.593-5.07-5.323-6.193-.5-17.693-1.828-24.446-2.634-6.172-.616-12.4.266-18.16 2.572a51.95 51.95 0 0 0-24.944 19.816L17.042 435.42z" fill="#fff"></path><path d="M445.27 28.752s4.395.157 5.382-2.022-.82-2.823-3.43-3.046-21.96-3.32-21.96-3.32-3.736-.645-5.384 2.022 1.2 3.167 4.95 3.56 20.442 2.804 20.442 2.804z" fill="#e4e4e4"></path><path d="M91.423 437.195l-46.47-9.362 28.42-43.085 46.428 9.424z" fill="#fff" opacity=".2"></path><path d="M91.422 437.195l-1.012-41.53-47.246-4.63 1.788 36.8" class="B"></path><path d="M119.8 394.175l-1.07-37.5-28.32 39 1.012 41.53z" class="E"></path><path d="M43.164 391.034l27.5-37.24 48.064 2.864-28.324 39z" class="C"></path><path d="M105.74 415.5l-.13-10.206 4.43-6.716.1 10.265" fill="#272440"></path><path d="M94.735 396.93l.337 8.355 5.5-7.6c0-.258-.4-7.662-.4-7.662zm7.975 8.4l-9.2 13.374.42 14.68 9.375-14.213zm9.765-.045l-.457-14.247 6.257-8.34.46 13.07zm-9.027-10.557l12-15.282-.064-10.4-12.054 15.695z" fill="#9fb1c5"></path><path d="M210.022 331.748l18.43-27.93 33.526 6.316-19.014 27.82-15.695-2.957z" fill="#e5e5ec" opacity=".5"></path><g class="D"><path d="M210.02 331.748l-.088-4.125 33.01 6.172.024 4.156"></path><path d="M242.856 333.8l19.03-26.923.087 3.257-19 27.82zm-32.92-6.177l18.3-27.018.22 3.213-18.43 27.93z"></path><path d="M228.233 300.605l33.685 6.276.06 3.257-33.524-6.314z"></path></g><path d="M288.11 407.028l-46.143-8.46 74.566-113.05 45.637 9.227z" fill="#6f8195" opacity=".5"></path><path d="M288.113 407.03l-.95-22.28-46.9-10.017 1.722 23.837" class="B"></path><path d="M287.16 384.75l73-107.76 1.314 18.825-73.36 111.216z" class="D"></path><path d="M240.246 374.732L314.17 268.77l45.983 8.22-73 107.76z" class="C"></path><path d="M249.502 248.387l32.464-106.356 28.476 4.673-34.648 106.847z" class="B"></path><path d="M281.962 142.026L293.845 124l29.055 4.763-12.464 17.926z" class="C"></path><path d="M281.963 254.757c-.465-.092 33.68-107.065 33.68-107.065l27.22 4.166-32.428 108.492z" class="B"></path><path d="M315.642 147.692l11.708-17.75 27.3 4.063-11.777 17.856z" class="C"></path><path d="M310.438 260.35l2.7-2.88 29.73-101.2v-4.423zm-34.646-6.804l3.158-4.8 31.5-96.9v-5.16z" class="D"></path><path d="M342.862 156.282c.773-.676 11.145-16.8 11.145-16.8l.633-5.48-11.778 17.855zm-32.424-4.422l12.463-17.857v-5.23L310.438 146.7l.05 4.5" fill="#7d72c9"></path><path d="M415.47 213.94V166l17.134-20.857-1.3 44.793z" class="D"></path><path d="M415.473 213.94l-2.032-.474v-48.2l2.032.733z" class="C"></path><path d="M413.44 165.27l17-20.548 2.17.424L415.476 166z" class="B"></path><path d="M202.147 458.942l45.88 8.87 21.95-33.278-45.733-9.1z" fill="#6f8195" opacity=".5"></path><path d="M248.023 446.934l21.95-31.442v19.04l-21.95 33.278z" class="D"></path><path d="M248.023 467.81v-20.875l-45.88-9.1v21.1z" class="B"></path><path d="M202.147 437.832l21.316-31.067 46.51 8.724-21.95 31.442z" class="C"></path><path d="M229.333 99.817l25.306 3.447.586 47.29-23.66-3.56z" class="E"></path><path d="M214.743 172.804l-3.625-51.762 18.355-20.908 2.1 46.857z" class="B"></path><path d="M214.74 172.804l-1.313-.4-3.693-52.042 1.382.676z" class="D"></path><path d="M217.642 168.41l-2.9-44.4 12.442-14.043 1.987 40.708z" class="E"></path><g fill="#7d72c9"><path d="M209.736 120.366l18.1-20.278h1.805l-18.52 20.954z"></path><path d="M227.832 100.088l1.043-1.172 26.7 3.32-.927 1.027z"></path></g><path d="M255.573 102.236l.967 46.964-1.31 1.354-.584-47.29z" class="D"></path><path d="M233.322 107.19l1.3 28.166 16.238 1.783-.512-27.843z" class="B"></path><path d="M123.982 464.06l73.8-108.966-32.27-4.98 55.833-83.3-55.156-8.832 69.463-101.71 11.85 2.4-60.51 91.657 53.256 8.455-56.3 82.53 35.537 5.555-79.834 120.145z" fill="#5867ef"></path><path d="M146.427 353.8l45.37-68.788-47.98-5.266-45.4 67.026z" class="E"></path><path d="M146.428 353.8l-1.318-35.14-46.69 28.114z" class="B"></path><g class="C"><path d="M191.8 285.012l-.365-31.333-47.61 26.065z"></path><path d="M145.11 318.66l46.324-64.978-47.612 26.063-45.4 67.024z"></path></g><path d="M148.576 350.547l-.823-31.9 41.992-58.31.77 26.6L191.8 285l-.365-31.33-46.327 64.976 1.32 35.143z" class="B"></path><path d="M190.517 286.96l-2.625-.434-.65-22.7 2.5-3.476z" class="D"></path><ellipse cx="239.104" cy="161.264" rx="9.933" ry="7.553" fill="#5867ef"></ellipse><path d="M297.675 94.922l161.528 24.933-.885-41.33-161.4-24.465z" class="E"></path><path d="M458.318 78.526l27.125-22.63L320.098 31.71l-23.18 22.35z" class="C"></path><path d="M459.203 119.855l26.642-24.84-.4-39.12-27.125 22.63zm-128.473-19.83c-.052-.007-.287-20.4-.287-20.4l15.84 2.068-.083 20.72zm76.026 11.764c-.05-.007-.2-20.82-.2-20.82l16.615 2.15-.023 21.167z" class="B"></path><path d="M303.336 95.796L302.76 60.7l22.617 3.458.58 35.12zm47.447 7.322l-.575-35.086 22.617 3.458.58 35.12zm26.912 4.175l-.575-35.086 22.616 3.458.58 35.12zm51.943 8.004l-.574-35.086 22.617 3.458.58 35.12z" class="C"></path></svg> 